<?xml version="1.0" encoding="UTF-8" standalone="no"?>
<!DOCTYPE svg PUBLIC "-//W3C//DTD SVG 1.1//EN"
"http://www.w3.org/Graphics/SVG/1.1/DTD/svg11.dtd">


<!-- Page 1 -->
<svg x="0" y="0" width="1527" height="1459" viewBox="0 0 1527 1459" version="1.1" xmlns="http://www.w3.org/2000/svg" xmlns:xlink="http://www.w3.org/1999/xlink"
style="display: block;margin-left: auto;margin-right: auto;">
<defs>
<clipPath id="c0_1"><path d="M848.7,1459c-31.1,0,-48.1,-19.3,-48.1,-54.6c0,-2.7,0.6,-3.5,2.4,-3.5l26.6,0c2.1,0,2.9,1.1,2.9,3.7l0,3.5c0,14.3,5.8,22,16.7,22c5.6,0,10.3,-2.4,12.2,-6.6c2.4,-4.3,2.6,-7.2,2.6,-19.9L864,1298l-36.8,0c-4.5,0,-5.4,-0.8,-5.4,-5.6l0,-14.3c0,-4.8,0.9,-5.6,5.4,-5.6l66.9,0c4.7,0,5.5,0.8,5.5,5.6l0,120.4c0,23.4,-3.4,35.9,-12.2,45.7c-8.7,9.8,-22,14.8,-38.7,14.8Zm-367.9,-4.5c-5.1,0,-5.6,-0.5,-5.6,-5.6l0,-14.3c0,-4.8,0.8,-5.6,5.6,-5.6l13.5,0l0,-131l-13.5,0c-4.8,0,-5.6,-0.8,-5.6,-5.6l0,-14.3c0,-4.8,0.5,-5.6,5.6,-5.6l40.9,0c3.7,0,4.2,0.3,6.1,3.7l44,82.3c5.9,10.9,13.3,28.1,16.5,38.4c-0.8,-19.6,-0.8,-25.2,-0.8,-34.5l0,-64.4l-13.5,0c-4.8,0,-5.6,-0.8,-5.6,-5.6l0,-14.3c0,-4.8,0.8,-5.6,5.6,-5.6l57.3,0c5,0,5.6,0.8,5.6,5.6l0,14.3c0,4.8,-0.8,5.6,-5.6,5.6l-13.5,0l0,150.9c0,4.8,-0.8,5.6,-5.6,5.6l-17.5,0c-3.7,0,-4.3,-0.2,-6.1,-3.7l-48.9,-90.7c-8,-14.9,-11.4,-22.1,-16.2,-36.1c1.1,21.2,1.1,21.2,1.1,34.2l0,70.8l13.5,0c4.8,0,5.6,0.8,5.6,5.6l0,14.3c0,4.8,-0.8,5.6,-5.6,5.6Zm242.9,1.5c-5,0,-5.6,-0.5,-5.6,-5.3l0,-34.5l-65,0c-5,0,-5.6,-0.5,-5.6,-5.3l0,-27.9l66.1,-110.3c1.6,-2.7,2.4,-3.5,3.5,-3.5c0.8,0,1.9,0.3,3.7,1.1l16,6.6c2.9,1.3,3.9,2.1,3.9,3.7c0,0.8,-0.5,2.1,-1.6,3.7l-61.8,105.1l41.4,0l3.4,-42.7c0.3,-4.5,1.1,-5.1,5.6,-5.1l18.1,0c5,0,5.6,0.6,5.6,5.6l0,43l15.1,0c5,0,5.6,0.5,5.6,6.4l0,14.3c0,4.5,-0.9,5.3,-5.6,5.3l-15.1,0l0,34.5c0,4.8,-0.6,5.3,-5.6,5.3Zm266,2.2c-16.7,0,-39.6,-4.7,-50.7,-10.6c-3.2,-1.6,-4,-3.2,-4,-6.6l0,-40.1c0,-3.7,0.8,-4.5,4.5,-4.5l19.7,0c3.7,0,4.5,0.8,4.5,4.5l0,22.3c10.3,3.7,17.2,5.3,24.9,5.3c15.4,0,24.2,-8.2,24.2,-22.5c0,-6.4,-2.1,-12,-5.9,-15.7c-4.7,-4.8,-6.6,-5.8,-30.8,-17.2c-15.9,-7.7,-24.1,-12.8,-29.4,-18.3c-7.5,-7.7,-11.4,-19.2,-11.4,-32.7c0,-32.9,22.3,-53.3,58.1,-53.3c15.4,0,32.9,4.2,43.8,10.3c3.2,1.9,4,3.2,4,6.4l0,36.1c0,3.7,-0.8,4.5,-4.5,4.5l-19.7,0c-3.7,0,-4.5,-0.8,-4.5,-4.5l0,-20.7c-7.7,-2.4,-11.9,-3.2,-17.8,-3.2c-15.6,0,-24.9,7.4,-24.9,19.9c0,9.8,4.5,14.3,23.6,23.9c25.5,12.7,32.1,17,39,24.4c9.6,10.6,14.4,22.8,14.4,37.1c0,32.7,-23.1,55.2,-57.1,55.2ZM494.4,821.7c-13.5,0,-24.5,-10.9,-24.5,-24.4c0,-13.5,11,-24.4,24.5,-24.4l508,0c13.5,0,24.5,10.9,24.5,24.4c0,13.5,-11,24.4,-24.5,24.4ZM362,837.7c-11.6,0,-22.8,-5.8,-29.3,-16.3c-10,-16.2,-4.9,-37.3,11.2,-47.3c5.6,-3.4,11.9,-5.1,18,-5.1c11.6,0,22.8,5.8,29.3,16.4c10,16.1,4.9,37.3,-11.2,47.2c-5.7,3.5,-11.9,5.1,-18,5.1ZM494.4,662.9c-13.5,0,-24.5,-11,-24.5,-24.5c0,-13.5,11,-24.4,24.5,-24.4l631.9,0c13.5,0,24.4,10.9,24.4,24.4c0,13.5,-10.9,24.5,-24.4,24.5ZM492.4,504C478.9,504,468,493.1,468,479.6c0,-13.5,10.9,-24.5,24.4,-24.5l598.4,0c13.5,0,24.4,11,24.4,24.5c0,13.5,-10.9,24.4,-24.4,24.4Zm2,-158.8c-13.5,0,-24.5,-11,-24.5,-24.5c0,-13.5,11,-24.4,24.5,-24.4l422.3,0c13.5,0,24.4,10.9,24.4,24.4c0,13.5,-10.9,24.5,-24.4,24.5Zm941.7,751.5c23.6,0,42.8,-19.1,42.8,-42.7l0,-962.4c0,-23.6,-19.2,-42.7,-42.8,-42.7L91.7,48.9C68.1,48.9,48.9,68,48.9,91.6l0,962.4c0,23.6,19.1,42.7,42.8,42.7ZM91.7,1145.6C41,1145.6,0,1104.6,0,1054L0,91.6C0,41,41.1,0,91.7,0L1436.1,0c50.6,0,91.7,41,91.7,91.6l0,962.4c0,50.6,-41.1,91.6,-91.7,91.6Z" /></clipPath>

<style type="text/css"><![CDATA[

.g1_1{
}


]]></style>

</defs>
<path d="M0,0
L0,1459
L1527,1459
L1527,0 Z " 
fill="#FFFFFF" stroke="none" />
<g clip-path="url(#c0_1)">
<path d="M-7,-7l1542,0l0,1473L-7,1466Z" class="g1_1" />
</g>

</svg>
